<?xml version="1.0" encoding="UTF-8" standalone="no"?><!DOCTYPE svg PUBLIC "-//W3C//DTD SVG 1.1//EN" "http://www.w3.org/Graphics/SVG/1.1/DTD/svg11.dtd"><svg width="100%" height="100%" viewBox="0 0 16 16" version="1.1" xmlns="http://www.w3.org/2000/svg" xmlns:xlink="http://www.w3.org/1999/xlink" xml:space="preserve" style="fill-rule:evenodd;clip-rule:evenodd;stroke-linejoin:round;stroke-miterlimit:1.41421;"><path d="M8.803,16l-1.606,0l-0.507,-2.139c-0.391,-0.085 -0.773,-0.206 -1.14,-0.364l-1.691,1.438l-1.299,-0.926l0.87,-2.023c-0.266,-0.294 -0.502,-0.613 -0.704,-0.952l-2.23,0.188l-0.496,-1.499l1.916,-1.135c-0.039,-0.391 -0.039,-0.785 0,-1.176l-1.916,-1.135l0.496,-1.499l2.23,0.188c0.202,-0.339 0.438,-0.658 0.704,-0.952l-0.87,-2.023l1.299,-0.926l1.691,1.438c0.367,-0.158 0.749,-0.279 1.14,-0.364l0.507,-2.139l1.606,0l0.507,2.139c0.391,0.085 0.773,0.206 1.14,0.364l1.691,-1.438l1.299,0.926l-0.87,2.023c0.266,0.294 0.502,0.613 0.704,0.952l2.23,-0.188l0.496,1.499l-1.916,1.135c0.039,0.391 0.039,0.785 0,1.176l1.916,1.135l-0.496,1.499l-2.23,-0.188c-0.202,0.339 -0.438,0.658 -0.704,0.952l0.87,2.023l-1.299,0.926l-1.691,-1.438c-0.367,0.158 -0.749,0.279 -1.14,0.364l-0.507,2.139ZM5.548,8.49c-0.024,0.005 -0.048,0.008 -0.073,0.009c-0.817,0.02 -1.634,0.023 -2.45,0.01c0.233,2.357 2.106,4.235 4.46,4.476c-0.012,-0.845 -0.009,-1.691 0.011,-2.536c-0.141,-0.029 -0.279,-0.07 -0.413,-0.123c-0.28,-0.111 -0.54,-0.273 -0.764,-0.476c-0.222,-0.202 -0.408,-0.444 -0.545,-0.712c-0.105,-0.204 -0.181,-0.423 -0.226,-0.648ZM10.449,8.504c-0.037,0.18 -0.094,0.357 -0.17,0.525c-0.124,0.274 -0.299,0.526 -0.511,0.739c-0.213,0.212 -0.465,0.387 -0.739,0.511c-0.168,0.076 -0.344,0.133 -0.525,0.17c0.02,0.845 0.023,1.691 0.011,2.536c2.356,-0.242 4.23,-2.122 4.461,-4.481c-0.842,0.017 -1.685,0.017 -2.527,0ZM7.961,6.501c-0.224,0.008 -0.443,0.06 -0.643,0.163c-0.402,0.206 -0.697,0.591 -0.787,1.033c-0.034,0.163 -0.04,0.33 -0.019,0.494c0.019,0.147 0.059,0.291 0.12,0.426c0.075,0.165 0.18,0.315 0.308,0.443c0.128,0.128 0.278,0.233 0.443,0.308c0.182,0.082 0.379,0.126 0.578,0.131c0.201,0.006 0.402,-0.029 0.588,-0.103c0.169,-0.066 0.325,-0.164 0.459,-0.286c0.134,-0.121 0.246,-0.267 0.328,-0.428c0.067,-0.131 0.115,-0.271 0.141,-0.416c0.029,-0.163 0.031,-0.331 0.006,-0.495c-0.069,-0.447 -0.345,-0.847 -0.737,-1.072c-0.194,-0.112 -0.408,-0.175 -0.63,-0.195c-0.052,-0.003 -0.103,-0.004 -0.155,-0.003ZM7.485,3.037c-2.347,0.241 -4.215,2.108 -4.458,4.454c0.816,-0.013 1.632,-0.01 2.448,0.01c0.025,0.001 0.049,0.005 0.073,0.009c0.141,-0.7 0.586,-1.321 1.207,-1.678c0.232,-0.134 0.482,-0.225 0.741,-0.279c-0.02,-0.838 -0.023,-1.677 -0.011,-2.516ZM8.515,3.037c0.012,0.839 0.009,1.678 -0.011,2.516c0.2,0.04 0.394,0.104 0.58,0.194c0.696,0.336 1.21,0.992 1.365,1.749c0.841,-0.017 1.683,-0.017 2.525,0c-0.241,-2.349 -2.11,-4.218 -4.459,-4.459Z" style="fill:#000;"/></svg>
