<?xml version="1.0" encoding="UTF-8" standalone="no"?><!DOCTYPE svg PUBLIC "-//W3C//DTD SVG 1.1//EN" "http://www.w3.org/Graphics/SVG/1.1/DTD/svg11.dtd"><svg width="100%" height="100%" viewBox="0 0 720 260" version="1.1" xmlns="http://www.w3.org/2000/svg" xmlns:xlink="http://www.w3.org/1999/xlink" xml:space="preserve" style="fill-rule:evenodd;clip-rule:evenodd;stroke-linejoin:round;stroke-miterlimit:1.41421;"><path id="gear1" d="M89.716,249.951l-9.415,0l-4.336,-14.783c-2.734,-0.247 -5.456,-0.605 -8.161,-1.075l-8.015,13.157l-9.094,-2.436l-0.362,-15.402c-2.577,-0.946 -5.114,-1.997 -7.605,-3.15l-11.147,10.634l-8.153,-4.707l3.636,-14.971c-2.244,-1.581 -4.423,-3.252 -6.53,-5.011l-13.52,7.387l-6.657,-6.657l7.387,-13.52c-1.759,-2.107 -3.431,-4.286 -5.011,-6.53l-14.971,3.636l-4.707,-8.153l10.634,-11.147c-1.153,-2.491 -2.204,-5.028 -3.15,-7.605l-15.402,-0.363l-2.436,-9.093l13.157,-8.015c-0.47,-2.705 -0.828,-5.427 -1.075,-8.161l-14.783,-4.337l0,-9.414l14.783,-4.337c0.247,-2.733 0.605,-5.456 1.075,-8.16l-13.157,-8.015l2.436,-9.094l15.402,-0.363c0.946,-2.577 1.997,-5.113 3.15,-7.604l-10.634,-11.148l4.707,-8.153l14.971,3.636c1.58,-2.244 3.252,-4.422 5.011,-6.53l-7.387,-13.52l6.657,-6.657l13.52,7.387c2.107,-1.758 4.286,-3.43 6.53,-5.01l-3.636,-14.972l8.153,-4.707l11.147,10.634c2.491,-1.153 5.028,-2.203 7.605,-3.149l0.362,-15.402l9.094,-2.437l8.015,13.157c2.705,-0.469 5.427,-0.827 8.161,-1.074l4.336,-14.783l9.415,0l4.337,14.783c2.733,0.247 5.456,0.605 8.16,1.074l8.015,-13.157l9.094,2.437l0.363,15.402c2.576,0.946 5.113,1.996 7.604,3.149l11.147,-10.634l8.154,4.707l-3.636,14.972c2.244,1.58 4.422,3.252 6.53,5.01l13.52,-7.387l6.657,6.657l-7.387,13.52c1.758,2.108 3.43,4.286 5.01,6.53l14.972,-3.636l4.707,8.153l-10.635,11.148c1.154,2.491 2.204,5.027 3.15,7.604l15.402,0.363l2.437,9.094l-13.157,8.015c0.469,2.704 0.827,5.427 1.074,8.16l14.783,4.337l0,9.414l-14.783,4.337c-0.247,2.734 -0.605,5.456 -1.074,8.161l13.157,8.015l-2.437,9.093l-15.402,0.363c-0.946,2.577 -1.996,5.114 -3.15,7.605l10.635,11.147l-4.707,8.153l-14.972,-3.636c-1.58,2.244 -3.252,4.423 -5.01,6.53l7.387,13.52l-6.657,6.657l-13.52,-7.387c-2.108,1.759 -4.286,3.43 -6.53,5.011l3.636,14.971l-8.154,4.707l-11.147,-10.634c-2.491,1.153 -5.028,2.204 -7.604,3.15l-0.363,15.402l-9.094,2.436l-8.015,-13.157c-2.704,0.47 -5.427,0.828 -8.16,1.075l-4.337,14.783ZM27.609,138.449l-28.784,0c1.819,44.583 38.161,80.9 82.751,82.681l0,-28.731c-2.379,-0.138 -4.746,-0.425 -7.087,-0.859c-3.837,-0.711 -7.601,-1.816 -11.213,-3.293c-6.637,-2.714 -12.746,-6.683 -17.935,-11.63c-4.926,-4.697 -9.012,-10.263 -12.005,-16.376c-2.598,-5.305 -4.365,-11.01 -5.222,-16.855c-0.24,-1.638 -0.409,-3.285 -0.505,-4.937ZM171.193,138.449l-28.785,0c-0.082,1.416 -0.218,2.822 -0.405,4.22c-0.784,5.864 -2.482,11.599 -5.019,16.944c-2.919,6.151 -6.94,11.768 -11.811,16.525c-5.127,5.006 -11.185,9.046 -17.785,11.839c-3.478,1.473 -7.102,2.599 -10.803,3.357c-2.673,0.547 -5.385,0.903 -8.108,1.063l0,28.731c44.572,-1.798 80.893,-38.104 82.716,-82.679ZM76.069,149.747l-16.762,16.761c3.053,2.497 6.467,4.55 10.11,6.065c2.54,1.057 5.188,1.853 7.89,2.371c2.536,0.487 5.119,0.728 7.702,0.728c2.583,0 5.165,-0.241 7.702,-0.728c2.702,-0.518 5.349,-1.314 7.889,-2.371c3.637,-1.513 7.045,-3.561 10.095,-6.052l-16.762,-16.761c-0.708,0.431 -1.447,0.809 -2.21,1.132c-1.044,0.442 -2.131,0.78 -3.241,1.007c-1.106,0.227 -2.234,0.344 -3.362,0.351c-1.095,0.007 -2.191,-0.089 -3.267,-0.289c-1.151,-0.213 -2.28,-0.545 -3.364,-0.988c-0.839,-0.343 -1.65,-0.753 -2.42,-1.226ZM116.52,109.296l-16.762,16.762c0.219,0.354 0.422,0.717 0.612,1.087c0.741,1.446 1.275,2.997 1.581,4.592c0.351,1.83 0.403,3.716 0.156,5.563c-0.235,1.759 -0.745,3.48 -1.506,5.083c-0.448,0.945 -0.983,1.847 -1.594,2.692l16.648,16.648c2.454,-2.808 4.523,-5.954 6.125,-9.327c1.753,-3.695 2.939,-7.654 3.507,-11.704c0.634,-4.526 0.507,-9.161 -0.382,-13.644c-0.759,-3.827 -2.077,-7.538 -3.898,-10.988c-1.265,-2.397 -2.772,-4.666 -4.487,-6.764ZM53.486,109.313c-1.763,2.157 -3.304,4.493 -4.59,6.965c-1.762,3.388 -3.041,7.024 -3.784,10.77c-0.889,4.483 -1.015,9.118 -0.381,13.644c0.567,4.05 1.753,8.009 3.507,11.704c1.598,3.367 3.663,6.507 6.111,9.312l16.65,-16.65c-0.567,-0.784 -1.066,-1.617 -1.492,-2.486c-0.779,-1.592 -1.31,-3.303 -1.567,-5.057c-0.265,-1.808 -0.242,-3.659 0.069,-5.46c0.282,-1.638 0.804,-3.234 1.544,-4.723c0.213,-0.429 0.445,-0.848 0.694,-1.259l-16.761,-16.76ZM84.929,122.797c-0.596,0.006 -1.191,0.05 -1.78,0.141c-1.089,0.166 -2.154,0.482 -3.158,0.936c-1.207,0.546 -2.322,1.291 -3.292,2.193c-1.022,0.952 -1.88,2.077 -2.524,3.316c-0.529,1.016 -0.912,2.107 -1.135,3.231c-0.267,1.344 -0.305,2.735 -0.115,4.093c0.17,1.215 0.526,2.403 1.052,3.511c0.631,1.329 1.504,2.54 2.563,3.561c1.095,1.057 2.386,1.908 3.791,2.492c0.762,0.317 1.556,0.556 2.367,0.712c0.761,0.146 1.536,0.218 2.311,0.218c0.774,0 1.549,-0.072 2.31,-0.218c0.811,-0.156 1.605,-0.395 2.367,-0.712c1.405,-0.584 2.697,-1.435 3.792,-2.492c1.058,-1.021 1.931,-2.232 2.562,-3.561c0.526,-1.108 0.882,-2.296 1.052,-3.511c0.19,-1.358 0.152,-2.748 -0.114,-4.093c-0.228,-1.148 -0.623,-2.262 -1.17,-3.297c-0.617,-1.169 -1.426,-2.237 -2.383,-3.149c-0.994,-0.948 -2.147,-1.728 -3.399,-2.294c-1.003,-0.454 -2.069,-0.77 -3.158,-0.936c-0.589,-0.091 -1.184,-0.135 -1.78,-0.141c-0.053,0 -0.106,0 -0.159,0ZM81.576,48.755c-44.628,1.781 -80.995,38.16 -82.756,82.793l28.79,0c0.124,-2.132 0.369,-4.257 0.732,-6.361c0.941,-5.462 2.681,-10.781 5.149,-15.744c2.876,-5.784 6.732,-11.071 11.354,-15.584c4.625,-4.516 10.008,-8.249 15.866,-10.985c4.708,-2.2 9.715,-3.753 14.841,-4.603c1.791,-0.297 3.597,-0.509 5.408,-0.636l0.616,-0.035l0,-28.845ZM88.477,48.757l0,28.845c1.766,0.101 3.527,0.288 5.276,0.555c5.144,0.787 10.177,2.279 14.918,4.425c5.894,2.666 11.324,6.335 16.006,10.798c4.673,4.456 8.591,9.694 11.535,15.441c2.47,4.819 4.251,9.986 5.271,15.305c0.47,2.449 0.779,4.93 0.924,7.422l28.791,0c-1.762,-44.621 -38.108,-80.991 -82.721,-82.791ZM111.719,104.338c-2.994,-2.612 -6.366,-4.785 -9.985,-6.422c-3.346,-1.514 -6.897,-2.567 -10.526,-3.122c-1.965,-0.3 -3.948,-0.449 -5.935,-0.468c-0.176,-0.001 -0.352,-0.001 -0.528,0c-1.987,0.019 -3.97,0.168 -5.935,0.468c-3.63,0.555 -7.181,1.608 -10.526,3.122c-3.626,1.64 -7.003,3.817 -10,6.436l16.65,16.65c0.873,-0.634 1.807,-1.184 2.785,-1.641c1.413,-0.66 2.915,-1.125 4.453,-1.381c0.537,-0.089 1.079,-0.152 1.622,-0.19c0.294,-0.021 0.587,-0.033 0.882,-0.039c0.148,-0.003 0.296,-0.004 0.444,-0.003c0.258,0.002 0.516,0.009 0.774,0.022c0.582,0.03 1.162,0.088 1.738,0.176c1.543,0.237 3.053,0.684 4.475,1.328c1.042,0.471 2.035,1.046 2.96,1.716l16.652,-16.652Z" style="fill:#000;"/><path id="gear2" d="M232.097,60.757l9.062,0l2.863,12.303c2.208,0.484 4.362,1.184 6.433,2.09l9.548,-8.27l7.331,5.327l-4.915,11.635c1.501,1.69 2.833,3.523 3.976,5.472l12.585,-1.078l2.8,8.618l-10.815,6.525c0.221,2.249 0.221,4.515 0,6.764l10.815,6.525l-2.8,8.618l-12.585,-1.079c-1.143,1.95 -2.475,3.783 -3.976,5.472l4.915,11.636l-7.331,5.327l-9.548,-8.27c-2.071,0.905 -4.225,1.606 -6.433,2.09l-2.863,12.302l-9.062,0l-2.863,-12.302c-2.208,-0.484 -4.362,-1.185 -6.433,-2.09l-9.547,8.27l-7.332,-5.327l4.915,-11.636c-1.501,-1.689 -2.833,-3.522 -3.975,-5.472l-12.586,1.079l-2.8,-8.618l10.816,-6.525c-0.222,-2.249 -0.222,-4.515 0,-6.764l-10.816,-6.525l2.8,-8.618l12.586,1.078c1.142,-1.949 2.474,-3.782 3.975,-5.472l-4.915,-11.635l7.332,-5.327l9.547,8.27c2.071,-0.906 4.225,-1.606 6.433,-2.09M236.628,95.26c-6.309,0 -11.501,5.192 -11.501,11.501c0,6.309 5.192,11.501 11.501,11.501c6.309,0 11.501,-5.192 11.501,-11.501c0,-6.309 -5.192,-11.501 -11.501,-11.501" style="fill:#000;fill-rule:nonzero;"/><path id="gear3" d="M302.674,86.52l-8.479,0l-3.016,-15.586c-2.185,-0.296 -4.351,-0.727 -6.484,-1.289l-8.751,13.244l-7.833,-3.244l3.178,-15.553c-1.906,-1.111 -3.742,-2.338 -5.498,-3.674l-13.153,8.888l-5.995,-5.995l8.888,-13.153c-1.336,-1.756 -2.562,-3.592 -3.673,-5.497l-15.553,3.177l-3.245,-7.833l13.245,-8.751c-0.562,-2.133 -0.993,-4.298 -1.29,-6.484l-15.585,-3.016l0,-8.479l15.585,-3.016c0.297,-2.186 0.728,-4.351 1.29,-6.484l-13.245,-8.751l3.245,-7.833l15.553,3.178c1.111,-1.906 2.337,-3.742 3.673,-5.498l-8.888,-13.153l5.995,-5.995l13.153,8.888c1.756,-1.336 3.592,-2.563 5.498,-3.673l-3.178,-15.554l7.833,-3.244l8.751,13.245c2.133,-0.563 4.299,-0.993 6.484,-1.29l3.016,-15.586l8.479,0l3.016,15.586c2.186,0.297 4.352,0.727 6.485,1.29l8.75,-13.245l7.834,3.244l-3.178,15.554c1.906,1.11 3.742,2.337 5.497,3.673l13.153,-8.888l5.996,5.995l-8.888,13.153c1.335,1.756 2.562,3.592 3.673,5.498l15.553,-3.178l3.245,7.833l-13.245,8.751c0.562,2.133 0.993,4.298 1.29,6.484l15.585,3.016l0,8.479l-15.585,3.016c-0.297,2.186 -0.728,4.351 -1.29,6.484l13.245,8.751l-3.245,7.833l-15.553,-3.177c-1.111,1.905 -2.338,3.741 -3.673,5.497l8.888,13.153l-5.996,5.995l-13.153,-8.888c-1.755,1.336 -3.591,2.563 -5.497,3.674l3.178,15.553l-7.834,3.244l-8.75,-13.244c-2.133,0.562 -4.299,0.993 -6.485,1.289l-3.016,15.586ZM293.379,56.716c-0.278,-1.623 -1.693,-2.86 -3.395,-2.86c-1.572,0 -2.899,1.055 -3.312,2.494c-0.092,0.303 -0.141,0.624 -0.141,0.956c0,0.417 0.078,0.816 0.219,1.184c0.485,1.316 1.75,2.255 3.234,2.255c1.614,0 2.971,-1.113 3.343,-2.613c0.068,-0.264 0.105,-0.541 0.105,-0.826c0,-0.201 -0.018,-0.398 -0.053,-0.59ZM323.475,49.462c-0.604,-0.993 -1.697,-1.657 -2.944,-1.657c-1.901,0 -3.445,1.543 -3.445,3.444c0,1.902 1.544,3.445 3.445,3.445c1.553,0 2.867,-1.029 3.297,-2.443c0.104,-0.322 0.161,-0.664 0.161,-1.02c0,-0.649 -0.188,-1.255 -0.514,-1.769ZM267.954,39.518c-0.391,-1.475 -1.735,-2.563 -3.331,-2.563c-1.518,0 -2.809,0.985 -3.267,2.35c-0.12,0.342 -0.185,0.709 -0.185,1.091c0,0.319 0.046,0.628 0.131,0.921c0.402,1.457 1.737,2.528 3.321,2.528c1.661,0 3.049,-1.178 3.373,-2.743c0.05,-0.228 0.076,-0.464 0.076,-0.706c0,-0.304 -0.041,-0.598 -0.118,-0.878ZM298.435,-8.362c-14.196,0 -25.877,11.681 -25.877,25.877c0,14.195 11.681,25.877 25.877,25.877c14.195,0 25.877,-11.682 25.877,-25.877c0,-14.196 -11.682,-25.877 -25.877,-25.877ZM340.338,23.445c-0.631,-0.793 -1.605,-1.302 -2.697,-1.302c-0.762,0 -1.466,0.248 -2.037,0.667c-0.861,0.614 -1.421,1.607 -1.421,2.728c0,0.249 0.027,0.492 0.08,0.725c0.314,1.579 1.708,2.769 3.378,2.769c1.901,0 3.445,-1.543 3.445,-3.444c0,-0.081 -0.003,-0.162 -0.008,-0.241c-0.041,-0.716 -0.311,-1.373 -0.74,-1.902ZM261.549,8.748c-0.562,-1.139 -1.736,-1.924 -3.092,-1.924c-1.398,0 -2.603,0.835 -3.143,2.034c-0.197,0.424 -0.306,0.895 -0.306,1.39c0,0.173 0.013,0.343 0.039,0.51c0.238,1.67 1.675,2.956 3.41,2.956c1.694,0 3.105,-1.226 3.392,-2.839c0.039,-0.203 0.059,-0.413 0.059,-0.627c0,-0.538 -0.129,-1.048 -0.359,-1.5ZM333.978,-6.842c-0.631,-0.703 -1.547,-1.145 -2.565,-1.145c-0.977,0 -1.86,0.408 -2.487,1.063c-0.597,0.606 -0.964,1.43 -0.964,2.337c0,0.146 0.01,0.289 0.028,0.431c0.192,1.719 1.653,3.058 3.423,3.058c1.809,0 3.295,-1.397 3.434,-3.171c0.01,-0.105 0.016,-0.211 0.016,-0.318c0,-0.867 -0.335,-1.657 -0.885,-2.255ZM278.661,-16.679c-0.47,-1.343 -1.749,-2.307 -3.252,-2.307c-1.901,0 -3.445,1.543 -3.445,3.444c0,1.901 1.544,3.445 3.445,3.445c1.317,0 2.463,-0.741 3.042,-1.828c0.265,-0.478 0.416,-1.025 0.416,-1.605c0,-0.404 -0.073,-0.79 -0.206,-1.149ZM309.253,-21.968c-0.131,-1.782 -1.62,-3.189 -3.435,-3.189c-1.461,0 -2.71,0.91 -3.211,2.194c-0.158,0.387 -0.245,0.808 -0.245,1.25c0,0.429 0.082,0.839 0.232,1.217c0.492,1.301 1.751,2.228 3.224,2.228c1.828,0 3.325,-1.427 3.438,-3.227c0.004,-0.072 0.007,-0.145 0.007,-0.218c0,-0.086 -0.004,-0.171 -0.01,-0.255Z" style="fill:#000;"/></svg>